<svg width="29" height="31" viewBox="0 0 29 31" fill="none" xmlns="http://www.w3.org/2000/svg">
<path d="M25.2412 5.5831L18.4453 1.76848C16.2217 0.517279 13.497 0.517279 11.2735 1.76848L4.4462 5.5831C2.25396 6.8343 0.875977 9.15359 0.875977 11.6255V19.2852C0.875977 21.7876 2.25396 24.0764 4.4462 25.3276L11.2422 29.1727C13.4657 30.4239 16.1904 30.4239 18.4139 29.1727L25.2099 25.3276C27.4335 24.0764 28.7801 21.7876 28.7801 19.2852V11.6255C28.8428 9.15359 27.4648 6.8343 25.2412 5.5831ZM14.8437 22.2759C10.9916 22.2759 7.85984 19.2242 7.85984 15.4706C7.85984 11.717 10.9916 8.66531 14.8437 8.66531C18.6958 8.66531 21.8589 11.717 21.8589 15.4706C21.8589 19.2242 18.7271 22.2759 14.8437 22.2759Z" fill="#7C3AED"/>
</svg>
