<svg width="146" height="40" viewBox="0 0 146 40" fill="none" xmlns="http://www.w3.org/2000/svg">
<g filter="url(#filter0_d_2_285)">
<path d="M54.2377 23.4763H50.9099V15.098C50.9099 14.1639 50.6744 13.43 50.2032 12.8962C49.732 12.3434 49.0841 12.067 48.2595 12.067C47.3172 12.067 46.5809 12.372 46.0508 12.982C45.5404 13.592 45.2852 14.4308 45.2852 15.4984V23.4763H41.928V9.46486H45.2263V10.6944C46.1294 9.64596 47.3761 9.12173 48.9663 9.12173C50.7529 9.12173 52.0977 9.73175 53.0008 10.9518C54.1199 9.73175 55.6218 9.12173 57.5065 9.12173C59.3913 9.12173 60.8146 9.6555 61.7767 10.723C62.7583 11.7715 63.2491 13.3061 63.2491 15.3268V23.4763H59.8919V15.098C59.8919 14.1639 59.6563 13.43 59.1851 12.8962C58.7139 12.3434 58.0661 12.067 57.2415 12.067C56.2991 12.067 55.5629 12.3815 55.0328 13.0106C54.5027 13.6206 54.2377 14.4499 54.2377 15.4984V23.4763Z" fill="#05010D"/>
<path d="M79.2867 16.299L79.2572 17.4428H69.3918C69.4703 18.4913 69.8531 19.3205 70.5403 19.9305C71.2274 20.5406 72.1109 20.8456 73.1907 20.8456C74.7417 20.8456 75.9785 20.1879 76.9013 18.8725L79.1689 20.9314C77.6375 22.8377 75.6448 23.7908 73.1907 23.7908C71.0115 23.7908 69.2642 23.1236 67.9488 21.7892C66.6137 20.4357 65.9462 18.6914 65.9462 16.5564C65.9462 14.4785 66.5548 12.7151 67.7721 11.2663C69.0089 9.83659 70.6483 9.12173 72.6901 9.12173C74.8693 9.12173 76.5086 9.82706 77.6081 11.2377C78.7271 12.6484 79.2867 14.3355 79.2867 16.299ZM72.7195 12.0956C71.8753 12.0956 71.1783 12.3529 70.6286 12.8676C70.0985 13.3823 69.7452 14.04 69.5685 14.8407H75.7233C75.7037 14.0591 75.4386 13.4109 74.9282 12.8962C74.4177 12.3625 73.6815 12.0956 72.7195 12.0956Z" fill="#05010D"/>
<path d="M88.8813 9.12173C90.4912 9.12173 91.836 9.57924 92.9158 10.4943V3.43137H96.273V23.4763H92.9747V22.2181C91.9538 23.2666 90.5893 23.7908 88.8813 23.7908C86.8395 23.7908 85.1511 23.1046 83.8161 21.732C82.5007 20.3404 81.843 18.5866 81.843 16.4706C81.843 14.3546 82.5007 12.6008 83.8161 11.2091C85.1315 9.81753 86.8199 9.12173 88.8813 9.12173ZM91.944 13.268C91.2569 12.4292 90.3145 12.0098 89.1169 12.0098C87.9193 12.0098 86.9769 12.4292 86.2898 13.268C85.6026 14.1067 85.2591 15.1743 85.2591 16.4706C85.2591 17.7669 85.6026 18.8344 86.2898 19.6732C86.9769 20.512 87.9193 20.9314 89.1169 20.9314C90.3145 20.9314 91.2569 20.512 91.944 19.6732C92.6311 18.8344 92.9747 17.7669 92.9747 16.4706C92.9747 15.1743 92.6311 14.1067 91.944 13.268Z" fill="#05010D"/>
<path d="M99.6748 9.46486H103.032V17.8431C103.032 18.7772 103.268 19.5207 103.739 20.0735C104.21 20.6073 104.878 20.8742 105.741 20.8742C106.664 20.8742 107.39 20.5596 107.921 19.9305C108.47 19.2824 108.745 18.4246 108.745 17.357V9.46486H112.102V23.4763H108.804V22.3325C107.881 23.3047 106.635 23.7908 105.064 23.7908C103.415 23.7908 102.099 23.2475 101.118 22.1609C100.156 21.0553 99.6748 19.5398 99.6748 17.6144V9.46486Z" fill="#05010D"/>
<path d="M121.757 18.1863L119.842 17.7288C116.917 17.0615 115.454 15.5841 115.454 13.2966C115.454 12.0384 115.945 11.028 116.927 10.2655C117.909 9.50299 119.175 9.12173 120.726 9.12173C122.807 9.12173 124.623 9.90332 126.174 11.4665L124.024 13.6969C123.141 12.515 122.012 11.924 120.638 11.924C120.049 11.924 119.568 12.0575 119.195 12.3243C118.841 12.5722 118.664 12.8772 118.664 13.2394C118.664 13.8875 119.136 14.326 120.078 14.5547L122.346 15.0694C125.29 15.7176 126.763 17.1759 126.763 19.4444C126.763 20.7407 126.252 21.7892 125.232 22.5899C124.23 23.3905 122.836 23.7908 121.05 23.7908C118.537 23.7908 116.544 22.8853 115.072 21.0743L117.192 18.9583C118.252 20.3118 119.626 20.9886 121.315 20.9886C122.787 20.9886 123.524 20.512 123.524 19.5588C123.524 18.9488 122.935 18.4913 121.757 18.1863Z" fill="#05010D"/>
<path d="M133.703 23.7908C132.309 23.7908 131.151 23.4096 130.228 22.6471C129.305 21.8655 128.844 20.8265 128.844 19.5302C128.844 18.0433 129.393 16.89 130.493 16.0703C131.592 15.2505 133.045 14.8407 134.851 14.8407C135.754 14.8407 136.726 15.0027 137.767 15.3268V14.3832C137.767 13.6969 137.502 13.1441 136.972 12.7247C136.442 12.2862 135.764 12.067 134.94 12.067C133.428 12.067 132.289 12.7437 131.524 14.0972L129.256 12.0384C129.786 11.1043 130.562 10.3894 131.582 9.89378C132.623 9.37908 133.752 9.12173 134.969 9.12173C136.873 9.12173 138.375 9.57924 139.475 10.4943C140.574 11.4093 141.124 12.7151 141.124 14.4118V23.4763H137.826V22.3897C136.746 23.3238 135.372 23.7908 133.703 23.7908ZM132.201 19.3015C132.201 19.778 132.387 20.1688 132.76 20.4739C133.153 20.7789 133.693 20.9314 134.38 20.9314C135.794 20.9314 136.923 20.531 137.767 19.7304V18.1291C136.707 17.7478 135.705 17.5572 134.763 17.5572C133.978 17.5572 133.349 17.7097 132.878 18.0147C132.427 18.3197 132.201 18.7486 132.201 19.3015Z" fill="#05010D"/>
<path d="M29.2412 6.5831L22.4453 2.76848C20.2217 1.51728 17.497 1.51728 15.2735 2.76848L8.4462 6.5831C6.25396 7.8343 4.87598 10.1536 4.87598 12.6255V20.2852C4.87598 22.7876 6.25396 25.0764 8.4462 26.3276L15.2422 30.1727C17.4657 31.4239 20.1904 31.4239 22.4139 30.1727L29.2099 26.3276C31.4335 25.0764 32.7801 22.7876 32.7801 20.2852V12.6255C32.8428 10.1536 31.4648 7.8343 29.2412 6.5831ZM18.8437 23.2759C14.9916 23.2759 11.8598 20.2242 11.8598 16.4706C11.8598 12.717 14.9916 9.66531 18.8437 9.66531C22.6958 9.66531 25.8589 12.717 25.8589 16.4706C25.8589 20.2242 22.7271 23.2759 18.8437 23.2759Z" fill="#7C3AED"/>
</g>
<defs>
<filter id="filter0_d_2_285" x="-1" y="0" width="148" height="40.9412" filterUnits="userSpaceOnUse" color-interpolation-filters="sRGB">
<feFlood flood-opacity="0" result="BackgroundImageFix"/>
<feColorMatrix in="SourceAlpha" type="matrix" values="0 0 0 0 0 0 0 0 0 0 0 0 0 0 0 0 0 0 127 0" result="hardAlpha"/>
<feOffset dy="4"/>
<feGaussianBlur stdDeviation="2"/>
<feComposite in2="hardAlpha" operator="out"/>
<feColorMatrix type="matrix" values="0 0 0 0 0 0 0 0 0 0 0 0 0 0 0 0 0 0 0.25 0"/>
<feBlend mode="normal" in2="BackgroundImageFix" result="effect1_dropShadow_2_285"/>
<feBlend mode="normal" in="SourceGraphic" in2="effect1_dropShadow_2_285" result="shape"/>
</filter>
</defs>
</svg>
